<svg width="18" height="18" viewBox="0 0 18 18" fill="none" xmlns="http://www.w3.org/2000/svg">
<path id="add" d="M9.02675 17.8894C8.67688 17.8894 8.3836 17.7711 8.14692 17.5344C7.91024 17.2977 7.7919 17.0045 7.7919 16.6546V10.4804H1.61766C1.26779 10.4804 0.974511 10.362 0.737831 10.1253C0.501152 9.88865 0.382812 9.59538 0.382812 9.2455C0.382812 8.89563 0.501152 8.60235 0.737831 8.36567C0.974511 8.12899 1.26779 8.01065 1.61766 8.01065H7.7919V1.83641C7.7919 1.48654 7.91024 1.19326 8.14692 0.956581C8.3836 0.719902 8.67688 0.601562 9.02675 0.601562C9.37663 0.601562 9.6699 0.719902 9.90658 0.956581C10.1433 1.19326 10.2616 1.48654 10.2616 1.83641V8.01065H16.4358C16.7857 8.01065 17.079 8.12899 17.3157 8.36567C17.5524 8.60235 17.6707 8.89563 17.6707 9.2455C17.6707 9.59538 17.5524 9.88865 17.3157 10.1253C17.079 10.362 16.7857 10.4804 16.4358 10.4804H10.2616V16.6546C10.2616 17.0045 10.1433 17.2977 9.90658 17.5344C9.6699 17.7711 9.37663 17.8894 9.02675 17.8894Z" fill="white" fill-opacity="0.6"/>
</svg>
