<svg width="20" height="20" viewBox="0 0 20 20" fill="none" xmlns="http://www.w3.org/2000/svg">
<path d="M10 14.3827C9.83931 14.3827 9.68974 14.3574 9.5513 14.3067C9.41283 14.256 9.28121 14.169 9.15643 14.0456L5.01028 9.9468C4.82568 9.76428 4.73125 9.53487 4.72698 9.25857C4.72269 8.98229 4.81713 8.74867 5.01028 8.55772C5.20344 8.36677 5.44104 8.26791 5.72308 8.26114C6.00513 8.25437 6.24274 8.34647 6.43592 8.53742L9.00003 11.0723V0.988564C9.00003 0.708045 9.09575 0.473153 9.2872 0.283892C9.47864 0.0946303 9.71624 0 10 0C10.2838 0 10.5214 0.0946303 10.7128 0.283892C10.9042 0.473153 11 0.708045 11 0.988564V11.0723L13.5641 8.53742C13.7487 8.35493 13.9842 8.26494 14.2705 8.26747C14.5568 8.27002 14.7966 8.36677 14.9897 8.55772C15.1829 8.74867 15.2794 8.98018 15.2794 9.25224C15.2794 9.5243 15.1829 9.75582 14.9897 9.9468L10.8436 14.0456C10.7188 14.169 10.5872 14.256 10.4487 14.3067C10.3103 14.3574 10.1607 14.3827 10 14.3827ZM2.41027 20C1.73676 20 1.16667 19.7693 0.700002 19.308C0.233334 18.8466 0 18.283 0 17.6172V15.057C0 14.7765 0.0957336 14.5416 0.287201 14.3523C0.478646 14.1631 0.716247 14.0685 1 14.0685C1.28376 14.0685 1.52136 14.1631 1.71281 14.3523C1.90425 14.5416 1.99997 14.7765 1.99997 15.057V17.6172C1.99997 17.7186 2.04271 17.8116 2.12817 17.8961C2.21366 17.9806 2.3077 18.0228 2.41027 18.0228H17.5897C17.6923 18.0228 17.7863 17.9806 17.8718 17.8961C17.9573 17.8116 18 17.7186 18 17.6172V15.057C18 14.7765 18.0957 14.5416 18.2872 14.3523C18.4786 14.1631 18.7162 14.0685 19 14.0685C19.2838 14.0685 19.5214 14.1631 19.7128 14.3523C19.9043 14.5416 20 14.7765 20 15.057V17.6172C20 18.283 19.7667 18.8466 19.3 19.308C18.8333 19.7693 18.2632 20 17.5897 20H2.41027Z" fill="white"/>
</svg>
