<svg width="160" height="202" viewBox="0 0 160 202" fill="none" xmlns="http://www.w3.org/2000/svg">
<circle cx="79.72" cy="121.72" r="79.72" fill="black"/>
<path d="M98.8102 56.5581L98.9114 55.0246C99.3384 48.5574 99.7533 34.8682 96.9439 22.9095C95.5385 16.9272 93.3611 11.5358 90.1099 7.69538C86.9139 3.92019 82.6522 1.599 76.8195 1.70209L76.8193 1.70209C74.3358 1.74565 72.6715 2.33537 71.5593 3.1906C70.46 4.0358 69.725 5.27457 69.346 6.96396C68.5618 10.4589 69.3875 15.5065 71.319 21.3687C75.1469 32.9865 82.8908 46.5929 87.7186 54.4987L88.9732 56.5533L86.617 57.0468C85.0517 57.3746 83.5248 57.813 82.0599 58.3519L80.5937 58.8914L79.9336 57.4754C77.0195 51.224 69.9331 36.0547 60.9102 24.2324C56.3883 18.3075 51.4964 13.3819 46.5342 10.7846C41.6757 8.24159 36.8409 7.95502 32.0134 11.1173L98.8102 56.5581ZM98.8102 56.5581L100.326 56.812M98.8102 56.5581L100.326 56.812M100.326 56.812C104.219 57.4638 108.149 58.7193 111.954 60.6213L111.956 60.624L112.199 60.7474C129.947 69.7691 137.688 89.1122 130.253 103.743C122.817 118.37 102.626 123.523 84.8787 114.502C67.1309 105.48 59.3894 86.137 66.825 71.5059L66.8258 71.5044C67.8211 69.541 69.0494 67.7568 70.4635 66.1511L71.8105 64.6216M100.326 56.812L71.8105 64.6216M71.8105 64.6216L70.0634 63.5721M71.8105 64.6216L70.0634 63.5721M70.0634 63.5721C62.155 58.8213 47.5507 48.5051 37.5566 37.7408M70.0634 63.5721L37.5566 37.7408M37.5566 37.7408C32.5342 32.3314 28.8544 26.995 27.6193 22.332M37.5566 37.7408L27.6193 22.332M27.6193 22.332C27.0113 20.0365 27.018 17.9881 27.6657 16.1841M27.6193 22.332L27.6657 16.1841M27.6657 16.1841C28.3098 14.3902 29.649 12.6665 32.0133 11.1174L27.6657 16.1841Z" fill="white" stroke="white" stroke-width="3.39758" stroke-miterlimit="10"/>
</svg>
