<svg width="10" height="11" viewBox="0 0 10 11" fill="none" xmlns="http://www.w3.org/2000/svg">
<path d="M5.01556 8.40599C5.13838 8.40599 5.24199 8.36358 5.32639 8.27878C5.41079 8.19397 5.45299 8.09016 5.45299 7.96735C5.45299 7.84453 5.41059 7.74092 5.32579 7.65651C5.24099 7.57212 5.13718 7.52992 5.01436 7.52992C4.89154 7.52992 4.78793 7.57232 4.70353 7.65713C4.61912 7.74192 4.57692 7.84573 4.57692 7.96856C4.57692 8.09137 4.61932 8.19498 4.70413 8.27939C4.78893 8.36379 4.89274 8.40599 5.01556 8.40599ZM4.72863 6.56624H5.26496C5.2792 6.32478 5.32461 6.12856 5.40118 5.97757C5.47775 5.82657 5.63533 5.6339 5.87393 5.39957C6.12179 5.15171 6.30626 4.92967 6.42735 4.73344C6.54843 4.53721 6.60897 4.31009 6.60897 4.05207C6.60897 3.61422 6.45513 3.26531 6.14746 3.00533C5.83977 2.74536 5.47581 2.61538 5.05556 2.61538C4.65598 2.61538 4.31677 2.724 4.03793 2.94124C3.75908 3.15848 3.55484 3.40812 3.42521 3.69017L3.9359 3.90171C4.02493 3.69943 4.15225 3.52066 4.31785 3.36539C4.48344 3.21011 4.72222 3.13247 5.03419 3.13247C5.39459 3.13247 5.65777 3.2313 5.82372 3.42896C5.98968 3.62661 6.07265 3.84402 6.07265 4.08119C6.07265 4.2735 6.02066 4.44533 5.91667 4.59668C5.81268 4.74804 5.67735 4.90029 5.51068 5.05342C5.18875 5.35043 4.97792 5.60221 4.87821 5.80876C4.77849 6.01531 4.72863 6.2678 4.72863 6.56624ZM5.00186 10.5C4.31044 10.5 3.6604 10.3688 3.05172 10.1064C2.44305 9.844 1.91358 9.48788 1.46332 9.03804C1.01307 8.58821 0.65662 8.05924 0.393972 7.45114C0.131324 6.84303 0 6.19327 0 5.50186C0 4.81044 0.131199 4.1604 0.393597 3.55172C0.656005 2.94305 1.01213 2.41358 1.46196 1.96332C1.91179 1.51307 2.44076 1.15662 3.04886 0.893973C3.65697 0.631324 4.30673 0.5 4.99814 0.5C5.68956 0.5 6.3396 0.631199 6.94828 0.893597C7.55695 1.156 8.08642 1.51212 8.53668 1.96196C8.98693 2.41179 9.34338 2.94076 9.60603 3.54886C9.86868 4.15697 10 4.80673 10 5.49814C10 6.18956 9.8688 6.8396 9.6064 7.44828C9.344 8.05695 8.98788 8.58642 8.53804 9.03668C8.08821 9.48693 7.55924 9.84338 6.95114 10.106C6.34303 10.3687 5.69327 10.5 5.00186 10.5ZM5 9.94444C6.24074 9.94444 7.29167 9.51389 8.15278 8.65278C9.01389 7.79167 9.44444 6.74074 9.44444 5.5C9.44444 4.25926 9.01389 3.20833 8.15278 2.34722C7.29167 1.48611 6.24074 1.05556 5 1.05556C3.75926 1.05556 2.70833 1.48611 1.84722 2.34722C0.986111 3.20833 0.555556 4.25926 0.555556 5.5C0.555556 6.74074 0.986111 7.79167 1.84722 8.65278C2.70833 9.51389 3.75926 9.94444 5 9.94444Z" fill="white" fill-opacity="0.6"/>
</svg>
