<svg width="629" height="204" viewBox="0 0 629 204" fill="none" xmlns="http://www.w3.org/2000/svg">
<path d="M264.812 61.2282C260.778 59.1799 256.599 57.8306 252.454 57.1365C253.313 44.1238 254.177 1.55217 228.637 2.00356C206.776 2.387 228.448 41.5513 238.116 57.384C236.471 57.7287 234.864 58.1898 233.321 58.7576C227.506 46.2837 204.699 -2.56375 182.93 11.6964C162.04 25.3837 205.063 57.4326 221.036 67.0283C219.532 68.7368 218.221 70.6394 217.158 72.7362C209.188 88.4185 217.605 108.687 235.957 118.016C254.308 127.345 275.645 122.19 283.615 106.513C291.585 90.8307 283.168 70.5618 264.816 61.233L264.812 61.2282Z" stroke="white" stroke-width="3.39758" stroke-miterlimit="10"/>
<path d="M225.95 43.9344C229.299 50.1229 231.852 55.5978 233.323 58.7527C234.871 58.1848 236.473 57.7237 238.118 57.3791C235.929 53.7923 233.124 49.0114 230.348 43.75C228.872 43.7743 227.401 43.8325 225.945 43.9344H225.95Z" fill="white"/>
<path d="M252.761 46.5859C252.79 50.8766 252.625 54.5751 252.455 57.133C256.605 57.8271 260.779 59.1764 264.812 61.2246C283.164 70.5486 291.58 90.8224 283.61 106.505C275.641 122.187 254.304 127.337 235.952 118.008C217.6 108.679 209.184 88.4101 217.154 72.7279C218.217 70.6311 219.527 68.7333 221.032 67.0199C215.542 63.7194 206.854 57.7688 198.661 50.8232C171.049 63.3554 151.848 91.1621 151.848 123.459C151.848 167.491 187.542 203.18 231.569 203.18C275.597 203.18 311.291 167.486 311.291 123.459C311.291 86.7647 286.498 55.8613 252.751 46.5859H252.761Z" fill="white"/>
<path d="M32.2673 98.2377C12.7846 98.2377 0 84.8415 0 65.155C0 45.4685 12.7846 32.6839 32.2673 31.2666C47.8961 30.0483 61.2874 29.6406 74.4797 29.6406C87.672 29.6406 100.66 30.2473 115.678 31.2666C134.957 32.6887 147.945 45.0656 147.945 64.7521C147.945 84.4387 134.957 98.2377 115.678 98.2377H108.98C107.761 92.7579 105.733 86.4675 104.107 81.5944C102.684 77.9396 97.2095 79.3617 98.2239 82.0021C107.155 109.197 109.591 146.944 108.169 169.878C106.543 186.72 96.6028 203.16 74.0769 203.16C51.5509 203.16 41.198 186.72 39.9846 169.878C38.3586 146.944 39.7808 122.996 45.6683 98.2377H32.2721H32.2673Z" fill="white"/>
<path d="M389.234 143.893C389.031 154.853 388.016 165.405 387.002 175.957C385.58 191.178 377.057 203.152 360.214 203.152C343.372 203.152 334.645 191.178 333.223 175.957C329.165 137.399 329.165 94.9828 333.223 56.6241C334.645 41.6068 342.964 29.6328 360.214 29.6328C377.464 29.6328 385.584 41.6068 387.002 56.6241C388.22 69.8164 388.623 81.5866 389.438 95.3856C395.122 78.9462 403.645 62.9145 409.935 51.3482C418.255 36.127 432.257 25.9828 451.536 34.0982C467.772 41.0001 473.455 53.9886 467.369 69.6126C459.05 91.1241 443.013 114.058 427.996 126.032C425.355 127.857 427.792 131.914 430.835 129.687C433.879 127.25 436.723 124.813 439.358 121.974C451.536 134.963 460.87 153.023 465.942 167.23C470.407 180.825 464.117 194.221 448.284 200.715C431.641 207.21 416.624 200.511 407.29 184.887C402.218 176.161 394.506 158.503 389.23 143.893H389.234Z" fill="white"/>
<path d="M479.944 58.8646C476.901 36.9454 493.34 29.6406 510.386 29.6406C532.51 29.6406 543.061 39.5858 544.683 62.1117C545.493 73.8819 548.134 92.9569 553.002 108.382C554.623 113.454 560.307 111.221 559.292 107.164C556.453 95.3934 553.812 74.8963 552.798 64.3444C549.959 36.5426 567.208 29.6406 591.763 29.6406C620.58 29.6406 632.961 43.2358 627.889 66.1694C620.584 99.2472 604.145 131.112 585.473 143.086C584.866 150.594 584.458 168.859 583.648 175.965C582.022 191.186 572.892 203.16 556.045 203.16C539.198 203.16 529.66 190.982 528.039 175.965C527.025 164.597 527.025 154.453 526.413 143.086C501.859 127.457 484.609 90.3213 479.939 58.8646H479.944Z" fill="white"/>
</svg>
