<svg width="9" height="14" viewBox="0 0 9 14" fill="none" xmlns="http://www.w3.org/2000/svg">
<path d="M7.35436 7.01697L0.926765 1.22737C0.81282 1.09627 0.748806 0.918448 0.748806 0.733035C0.748806 0.547624 0.81282 0.369806 0.926765 0.238699C1.04071 0.107593 1.19525 0.0339396 1.35639 0.0339397C1.51754 0.0339397 1.67208 0.107593 1.78602 0.238699L8.64204 6.52263C8.69855 6.58749 8.74338 6.66454 8.77397 6.74937C8.80457 6.83419 8.82031 6.92513 8.82031 7.01697C8.82031 7.10881 8.80457 7.19975 8.77397 7.28457C8.74338 7.3694 8.69855 7.44645 8.64204 7.51131L1.78602 13.7952C1.67208 13.9263 1.51754 14 1.35639 14C1.19525 14 1.04071 13.9263 0.926764 13.7952C0.812819 13.6641 0.748805 13.4863 0.748805 13.3009C0.748805 13.1155 0.812819 12.9377 0.926764 12.8066L7.35436 7.01697Z" fill="white" fill-opacity="0.87"/>
</svg>
