<svg width="20" height="21" viewBox="0 0 20 21" fill="none" xmlns="http://www.w3.org/2000/svg">
<path fill-rule="evenodd" clip-rule="evenodd" d="M16.6901 9C16.6901 13.2471 13.2471 16.6901 9 16.6901C4.75289 16.6901 1.30993 13.2471 1.30993 9C1.30993 4.75289 4.75289 1.30993 9 1.30993C13.2471 1.30993 16.6901 4.75289 16.6901 9ZM14.065 16.4405C12.6222 17.4246 10.8783 18 9 18C4.02944 18 0 13.9706 0 9C0 4.02944 4.02944 0 9 0C13.9706 0 18 4.02944 18 9C18 11.6183 16.8819 13.9755 15.0971 15.6201L19.4621 19.985L18.5358 20.9113L14.065 16.4405Z" fill="white" fill-opacity="0.87"/>
</svg>
