<svg width="16" height="16" viewBox="0 0 16 16" fill="none" xmlns="http://www.w3.org/2000/svg">
<path d="M7.68321 8.92378L1.72994 14.877C1.56747 15.0395 1.36324 15.1226 1.11726 15.1264C0.871295 15.1302 0.663312 15.047 0.493311 14.877C0.323291 14.707 0.238281 14.5009 0.238281 14.2587C0.238281 14.0165 0.323291 13.8104 0.493311 13.6404L6.44655 7.68712L0.493311 1.73385C0.330821 1.57138 0.247698 1.36715 0.243943 1.12117C0.240168 0.875201 0.323291 0.667218 0.493311 0.497218C0.663312 0.327197 0.869418 0.242188 1.11163 0.242188C1.35384 0.242188 1.55994 0.327197 1.72994 0.497218L7.68321 6.45046L13.6365 0.497218C13.799 0.334727 14.0032 0.251605 14.2492 0.247849C14.4951 0.244075 14.7031 0.327197 14.8731 0.497218C15.0431 0.667218 15.1281 0.873323 15.1281 1.11553C15.1281 1.35774 15.0431 1.56385 14.8731 1.73385L8.91988 7.68712L14.8731 13.6404C15.0356 13.8029 15.1187 14.0071 15.1225 14.2531C15.1263 14.499 15.0431 14.707 14.8731 14.877C14.7031 15.047 14.497 15.1321 14.2548 15.1321C14.0126 15.1321 13.8065 15.047 13.6365 14.877L7.68321 8.92378Z" fill="white"/>
</svg>
