<svg width="26" height="28" viewBox="0 0 26 28" fill="none" xmlns="http://www.w3.org/2000/svg">
<g filter="url(#filter0_d_1104_690)">
<path d="M18.4233 19.0666C17.6767 19.0666 17.0417 18.8052 16.5184 18.2824C15.995 17.7595 15.7333 17.1247 15.7333 16.3778C15.7333 16.2557 15.743 16.1293 15.7625 15.9985C15.7819 15.8677 15.811 15.7472 15.8499 15.6369L8.61809 11.4024C8.35986 11.6593 8.0659 11.8602 7.73621 12.005C7.40652 12.1498 7.05741 12.2222 6.68886 12.2222C5.94196 12.2222 5.30709 11.9609 4.78425 11.4382C4.26142 10.9156 4 10.281 4 9.53441C4 8.78781 4.26142 8.15283 4.78425 7.62948C5.30709 7.10612 5.94196 6.84444 6.68886 6.84444C7.05741 6.84444 7.40652 6.91683 7.73621 7.06161C8.0659 7.2064 8.35986 7.40729 8.61809 7.66426L15.8499 3.42973C15.811 3.31942 15.7819 3.19887 15.7625 3.0681C15.743 2.93733 15.7333 2.81092 15.7333 2.68887C15.7333 1.94196 15.9946 1.30709 16.5173 0.784251C17.0399 0.261417 17.6745 0 18.4211 0C19.1677 0 19.8027 0.261311 20.326 0.783934C20.8494 1.30656 21.1111 1.94117 21.1111 2.68777C21.1111 3.43436 20.8496 4.06934 20.3268 4.5927C19.804 5.11605 19.1691 5.37773 18.4222 5.37773C18.0537 5.37773 17.7045 5.30534 17.3749 5.16056C17.0452 5.01577 16.7512 4.81489 16.493 4.55791L9.26115 8.79245C9.30002 8.90276 9.32917 9.02308 9.34859 9.15342C9.36802 9.28374 9.37773 9.40972 9.37773 9.53135C9.37773 9.65301 9.36802 9.77964 9.34859 9.91127C9.32917 10.0429 9.30002 10.1639 9.26115 10.2742L16.493 14.5087C16.7512 14.2517 17.0452 14.0508 17.3749 13.9061C17.7045 13.7613 18.0537 13.6889 18.4222 13.6889C19.1691 13.6889 19.804 13.9502 20.3268 14.4728C20.8496 14.9954 21.1111 15.6301 21.1111 16.3767C21.1111 17.1233 20.8498 17.7582 20.3271 18.2816C19.8045 18.8049 19.1699 19.0666 18.4233 19.0666Z" fill="white"/>
<path d="M16.3215 15.8031L16.4586 15.4139L16.1026 15.2054L8.87074 10.9709L8.53839 10.7763L8.2654 11.0479C8.05039 11.2619 7.80769 11.4275 7.53518 11.5472C7.27037 11.6635 6.98987 11.7222 6.68886 11.7222C6.07299 11.7222 5.56572 11.5124 5.13773 11.0846C4.70975 10.6568 4.5 10.1498 4.5 9.53441C4.5 8.91896 4.70977 8.41149 5.13798 7.98286C5.56602 7.55439 6.07321 7.34444 6.68886 7.34444C6.98987 7.34444 7.27037 7.40313 7.53518 7.51941C7.80769 7.6391 8.05038 7.8047 8.2654 8.01868L8.53839 8.29034L8.87074 8.09574L16.1026 3.8612L16.4586 3.65272L16.3215 3.26357C16.2945 3.18695 16.2724 3.09786 16.257 2.99463L15.7625 3.0681L16.257 2.99463C16.2409 2.8862 16.2333 2.7844 16.2333 2.68887C16.2333 2.07299 16.4431 1.56572 16.8709 1.13773L16.5173 0.784251L16.8709 1.13773C17.2987 0.709754 17.8057 0.5 18.4211 0.5C19.0366 0.5 19.5441 0.709717 19.9727 1.13773C20.4012 1.56558 20.6111 2.07249 20.6111 2.68777C20.6111 3.30322 20.4013 3.81069 19.9731 4.23932C19.545 4.66778 19.0379 4.87773 18.4222 4.87773C18.1212 4.87773 17.8407 4.81905 17.5759 4.70276C17.3034 4.58307 17.0607 4.41747 16.8457 4.2035L16.5727 3.93183L16.2403 4.12644L9.00851 8.36097L8.65246 8.56946L8.78957 8.9586C8.81663 9.0354 8.83874 9.12438 8.85405 9.22712L9.34859 9.15342L8.85406 9.22713C8.87014 9.33505 8.87773 9.43633 8.87773 9.53135C8.87773 9.62643 8.87013 9.7286 8.85395 9.83827C8.83858 9.94242 8.81644 10.0317 8.78957 10.108L8.65246 10.4972L9.00851 10.7056L16.2403 14.9402L16.5727 15.1348L16.8457 14.8631C17.0607 14.6491 17.3034 14.4835 17.5759 14.3639C17.8407 14.2476 18.1212 14.1889 18.4222 14.1889C19.0381 14.1889 19.5453 14.3986 19.9733 14.8264C20.4013 15.2543 20.6111 15.7612 20.6111 16.3767C20.6111 16.9922 20.4013 17.4997 19.9733 17.9283C19.5455 18.3567 19.0386 18.5666 18.4233 18.5666C17.8078 18.5666 17.3004 18.3569 16.8717 17.9286L16.5184 18.2824L16.8717 17.9286C16.4433 17.5006 16.2333 16.9934 16.2333 16.3778C16.2333 16.2822 16.2409 16.1804 16.257 16.072L15.7625 15.9985L16.257 16.072C16.2724 15.9688 16.2945 15.8797 16.3215 15.8031Z" stroke="white"/>
</g>
<defs>
<filter id="filter0_d_1104_690" x="0" y="0" width="25.1094" height="27.0703" filterUnits="userSpaceOnUse" color-interpolation-filters="sRGB">
<feFlood flood-opacity="0" result="BackgroundImageFix"/>
<feColorMatrix in="SourceAlpha" type="matrix" values="0 0 0 0 0 0 0 0 0 0 0 0 0 0 0 0 0 0 127 0" result="hardAlpha"/>
<feOffset dy="4"/>
<feGaussianBlur stdDeviation="2"/>
<feComposite in2="hardAlpha" operator="out"/>
<feColorMatrix type="matrix" values="0 0 0 0 0 0 0 0 0 0 0 0 0 0 0 0 0 0 0.25 0"/>
<feBlend mode="normal" in2="BackgroundImageFix" result="effect1_dropShadow_1104_690"/>
<feBlend mode="normal" in="SourceGraphic" in2="effect1_dropShadow_1104_690" result="shape"/>
</filter>
</defs>
</svg>
