<svg width="27" height="27" viewBox="0 0 27 27" fill="none" xmlns="http://www.w3.org/2000/svg">
<mask id="mask0_814_31" style="mask-type:alpha" maskUnits="userSpaceOnUse" x="0" y="0" width="27" height="27">
<rect x="0.226562" y="0.148438" width="26.5459" height="26.8522" fill="white"/>
</mask>
<g mask="url(#mask0_814_31)">
<path d="M13.4987 17.7672C13.2633 17.7672 13.0662 17.6869 12.9074 17.5262C12.7486 17.3656 12.6692 17.1662 12.6692 16.9281V5.42555L11.1951 6.91666C11.0419 7.07156 10.854 7.14901 10.6314 7.14901C10.4088 7.14901 10.2117 7.06224 10.0401 6.88869C9.87984 6.71512 9.79971 6.51574 9.79971 6.29055C9.79971 6.06535 9.87984 5.87171 10.0401 5.70962L12.7989 2.91898C12.8911 2.82575 12.9974 2.75475 13.1179 2.70599C13.2385 2.6572 13.3654 2.63281 13.4987 2.63281C13.632 2.63281 13.7589 2.6572 13.8794 2.70599C13.9999 2.75475 14.1063 2.82575 14.1985 2.91898L16.9679 5.72039C17.1324 5.88678 17.2147 6.08544 17.2147 6.31637C17.2147 6.5473 17.1289 6.7438 16.9573 6.90589C16.7857 7.06797 16.5886 7.14901 16.366 7.14901C16.1434 7.14901 15.9519 7.06797 15.7917 6.90589L14.3282 5.42555V16.9281C14.3282 17.1662 14.2488 17.3656 14.09 17.5262C13.9312 17.6869 13.7341 17.7672 13.4987 17.7672ZM7.20258 25.3194C6.64387 25.3194 6.17094 25.1236 5.78382 24.732C5.39669 24.3404 5.20312 23.862 5.20312 23.2968V11.6782C5.20312 11.113 5.39669 10.6346 5.78382 10.2431C6.17094 9.85146 6.64387 9.65566 7.20258 9.65566H9.20201C9.4374 9.65566 9.63451 9.73599 9.79332 9.89666C9.95214 10.0573 10.0315 10.2567 10.0315 10.4948C10.0315 10.7329 9.95214 10.9323 9.79332 11.0929C9.63451 11.2536 9.4374 11.3339 9.20201 11.3339H7.20258C7.11749 11.3339 7.03948 11.3698 6.96856 11.4415C6.89766 11.5132 6.86221 11.5921 6.86221 11.6782V23.2968C6.86221 23.3829 6.89766 23.4618 6.96856 23.5336C7.03948 23.6053 7.11749 23.6411 7.20258 23.6411H19.7948C19.8799 23.6411 19.9579 23.6053 20.0288 23.5336C20.0997 23.4618 20.1352 23.3829 20.1352 23.2968V11.6782C20.1352 11.5921 20.0997 11.5132 20.0288 11.4415C19.9579 11.3698 19.8799 11.3339 19.7948 11.3339H17.7954C17.56 11.3339 17.3629 11.2536 17.204 11.0929C17.0452 10.9323 16.9658 10.7329 16.9658 10.4948C16.9658 10.2567 17.0452 10.0573 17.204 9.89666C17.3629 9.73599 17.56 9.65566 17.7954 9.65566H19.7948C20.3535 9.65566 20.8264 9.85146 21.2136 10.2431C21.6007 10.6346 21.7942 11.113 21.7942 11.6782V23.2968C21.7942 23.862 21.6007 24.3404 21.2136 24.732C20.8264 25.1236 20.3535 25.3194 19.7948 25.3194H7.20258Z" fill="white"/>
</g>
</svg>
